<svg xmlns="http://www.w3.org/2000/svg" width="528" height="473" viewBox="0 0 528 473" version="1.1">
	<path d="M 164.500 44.977 C 161.200 46.003, 155.238 47.797, 151.250 48.964 L 144 51.085 144 122.042 L 144 193 157.500 193 L 171 193 171 118 C 171 76.750, 170.887 43.025, 170.750 43.056 C 170.613 43.087, 167.800 43.952, 164.500 44.977 M 206.500 44.643 C 203.750 45.471, 197.787 47.267, 193.250 48.634 L 185 51.121 185 122.061 L 185 193 198.500 193 L 212 193 212 118 C 212 76.750, 211.887 43.031, 211.750 43.070 C 211.613 43.108, 209.250 43.816, 206.500 44.643 M 34 122 L 34 193 82 193 L 130 193 129.953 171.250 L 129.906 149.500 128.110 154.092 C 125.746 160.134, 121.131 166.745, 116.114 171.278 C 105.554 180.818, 82.899 187.467, 67.505 185.544 L 62 184.856 62 152.928 L 62 121 76.500 121 L 91 121 91 118.500 L 91 116 76.500 116 L 62 116 62 87.019 L 62 58.038 64.606 57.384 C 66.039 57.024, 70.684 57.020, 74.929 57.374 C 94.864 59.036, 110.837 67.040, 117.745 78.827 C 120.924 84.252, 120.783 84.776, 121.255 65.750 L 121.621 51 77.810 51 L 34 51 34 122 M 403.176 52.070 C 383.676 55.908, 368.693 75.561, 371.995 92.971 C 373.093 98.763, 376.458 105.724, 382.853 115.430 C 385.364 119.242, 386.963 122.512, 386.407 122.698 C 382.582 123.973, 371.854 131.382, 367.409 135.819 C 359.740 143.473, 356.473 150.633, 356.602 159.500 C 356.825 174.676, 367.473 187.283, 383.620 191.489 C 398.138 195.271, 411.576 191.983, 424.445 181.502 L 429.964 177.006 434.110 181.503 C 436.479 184.073, 441.072 187.387, 444.830 189.237 C 457.751 195.598, 472.156 192.940, 482.882 182.214 C 485.582 179.513, 488.584 175.773, 489.552 173.902 C 491.661 169.825, 493.980 161.470, 493.966 158 C 493.958 155.879, 493.680 156.107, 492.135 159.509 C 485.224 174.722, 463.832 176.378, 451.250 162.674 L 447 158.045 447.020 149.272 C 447.059 131.762, 450.130 119.836, 454.768 119.178 C 456.152 118.982, 458.880 120.198, 461.768 122.299 C 468.762 127.387, 472.429 129, 477 129 C 485.389 129, 491.105 123.782, 491.792 115.496 C 492.182 110.795, 491.870 109.401, 489.691 106.109 C 482.241 94.851, 461.525 94.693, 450.691 105.812 C 445.722 110.912, 444.286 114.980, 443.563 126 C 442.453 142.932, 441.857 148, 440.975 148 C 439.543 148, 416 116.955, 416 115.067 C 416 114.669, 418.273 113.819, 421.051 113.178 C 429.195 111.298, 437.095 106.918, 443.178 100.911 C 450.379 93.800, 452.803 86.971, 451.041 78.757 C 446.929 59.581, 425.557 47.666, 403.176 52.070 M 405.550 56.270 C 400.506 59.127, 396 67.301, 396 73.593 C 396 75.994, 396.961 80.887, 398.136 84.466 C 401.011 93.221, 410.114 108.409, 412.723 108.802 C 414.001 108.994, 416.718 107.283, 420.231 104.072 C 427.224 97.681, 430.153 91.240, 430.781 80.873 C 431.369 71.166, 429.378 64.745, 424.231 59.744 C 417.858 53.552, 412.205 52.501, 405.550 56.270 M 267 74.434 C 241.743 81.481, 224.185 108.273, 226.356 136.454 C 228.838 168.666, 248.989 191.132, 276.872 192.771 C 299.175 194.083, 317.179 182.987, 327.929 161.306 C 329.618 157.899, 331 154.768, 331 154.348 C 331 153.928, 329.087 155.420, 326.750 157.665 C 309.063 174.649, 278.712 174.150, 265.816 156.663 C 260.013 148.794, 256.072 137.923, 254.609 125.750 L 254.038 121 292.519 121 L 331 121 330.979 118.750 C 330.947 115.309, 326.691 104.029, 323.556 99.077 C 316.462 87.870, 304.704 78.533, 293.217 74.985 C 285.844 72.708, 274.074 72.461, 267 74.434 M 273.491 77.831 C 265.992 81.302, 259.912 90.499, 256.547 103.460 C 255.696 106.738, 255 110.901, 255 112.710 L 255 116 279.594 116 L 304.188 116 303.477 110.831 C 303.086 107.988, 301.698 102.521, 300.392 98.683 C 294.446 81.200, 283.891 73.018, 273.491 77.831 M 386.825 131.738 C 381.481 137.316, 379.654 141.586, 379.653 148.500 C 379.652 158.717, 386.281 169.530, 395.432 174.238 C 401.133 177.171, 413.049 177.809, 419.865 175.545 C 422.676 174.611, 425.190 173.502, 425.451 173.079 C 425.992 172.204, 393.049 128.801, 391.465 128.302 C 390.895 128.123, 388.807 129.669, 386.825 131.738 M 382.763 207.565 C 379.214 209.491, 377 213.869, 377 218.959 C 377 222.484, 377.719 223.800, 382.471 228.968 C 385.480 232.241, 388.212 235.998, 388.544 237.318 C 389.249 240.128, 387.021 245.930, 383.308 250.946 L 380.678 254.500 384.439 251 C 394.225 241.892, 401.927 228.563, 401.976 220.651 C 402.044 209.708, 391.743 202.693, 382.763 207.565 M 36.750 214.716 L 34 215.133 34 285.706 L 34 356.278 63.250 355.669 C 100.917 354.885, 111.026 353.274, 125.169 345.803 C 157.996 328.460, 171.707 287.390, 155.482 255 C 145.912 235.896, 127.912 221.575, 108.366 217.514 C 95.293 214.799, 48.320 212.963, 36.750 214.716 M 62 285.129 L 62 350.258 69.028 349.566 C 88.734 347.624, 105.900 337.112, 117.028 320.171 C 126.360 305.964, 129.973 287.880, 126.625 272.134 C 122.579 253.100, 109.088 235.578, 91.988 227.148 C 83.489 222.959, 72.787 220.050, 65.750 220.017 L 62 220 62 285.129 M 205 237.882 C 179.645 246.064, 164.816 269.413, 166.245 298.903 C 167.605 326.975, 183.418 348.185, 207.703 354.511 C 218.669 357.367, 232.638 355.751, 243.186 350.406 C 252.743 345.563, 264.186 332.731, 269.034 321.421 L 271.003 316.828 266.251 321.019 C 249.830 335.506, 224.974 337.022, 210.100 324.445 C 202.722 318.206, 195.956 303.424, 194.513 290.388 C 193.868 284.569, 193.947 284.246, 196.168 283.652 C 197.451 283.308, 214.848 283.021, 234.829 283.014 L 271.159 283 270.458 279.750 C 266.370 260.799, 251.235 243.768, 233.191 237.815 C 225.960 235.429, 212.502 235.462, 205 237.882 M 317.500 237.400 C 296.999 243.888, 282.822 260.550, 278.366 283.392 C 276.896 290.928, 276.797 293.748, 277.714 301.892 C 279.554 318.241, 284.239 328.906, 294.306 339.668 C 319.120 366.195, 360.516 359.588, 377.769 326.347 C 380.096 321.863, 382 317.864, 382 317.460 C 382 317.057, 379.744 318.836, 376.987 321.415 C 368.017 329.806, 356.392 333.651, 342.805 332.723 C 330.552 331.885, 320.951 326.205, 314.482 315.968 C 308.658 306.752, 303.868 285.963, 307.096 283.919 C 307.868 283.431, 325.095 283.024, 345.378 283.015 L 382.256 283 381.604 278.926 C 381.246 276.685, 379.680 272.073, 378.125 268.676 C 371.321 253.817, 357.993 241.650, 344.068 237.585 C 337.575 235.690, 323.219 235.590, 317.500 237.400 M 430.500 237.404 C 413.266 242.878, 401.522 255.499, 401.565 268.500 C 401.621 285.626, 415.675 297.261, 448 306.944 C 455.683 309.246, 463.223 312.181, 465.500 313.757 C 469.799 316.734, 474 323.781, 474 328.016 C 474 332.848, 469.376 340.282, 464.273 343.653 C 457.253 348.290, 453.063 349.285, 442.503 348.823 C 434.247 348.462, 432.401 348.008, 425.682 344.687 C 417.538 340.662, 412.447 335.484, 411.378 330.138 C 410.850 327.498, 411.326 326.521, 414.833 323.049 C 421.096 316.848, 422.009 310.241, 417.544 303.427 C 414.232 298.372, 404.104 298.510, 400.049 303.665 C 392.978 312.654, 396.103 328.236, 407.203 339.331 C 423.631 355.752, 450.441 360.388, 472.324 350.592 C 495.835 340.068, 500.994 309.779, 482.171 292.774 C 474.597 285.931, 465.895 282.435, 446.559 278.469 C 430.661 275.208, 423.867 269.437, 423.202 258.630 C 422.884 253.463, 423.194 251.956, 425.177 249.037 C 432.970 237.566, 447.747 235.927, 457.793 245.419 C 461.901 249.300, 462.352 250.194, 462.775 255.305 C 463.142 259.721, 462.787 261.795, 461.121 264.993 C 459.954 267.231, 459 269.245, 459 269.470 C 459 269.694, 461.070 270.188, 463.600 270.567 C 471.676 271.778, 480.958 267.288, 482.420 261.463 C 484.421 253.492, 472.386 242.057, 457.119 237.423 C 451.419 235.694, 435.921 235.682, 430.500 237.404 M 211.907 241.298 C 204.031 245.405, 196.504 259.606, 194.442 274.250 L 193.773 279 218.386 279 L 243 279 243 276.049 C 243 262.801, 233.716 244.940, 224.575 240.603 C 219.990 238.427, 217.110 238.585, 211.907 241.298 M 326.323 239.696 C 317.771 241.361, 306 262.220, 306 275.710 L 306 279 330.500 279 L 355 279 355 276.660 C 355 272.832, 351.289 259.489, 348.929 254.831 C 342.881 242.896, 335.448 237.920, 326.323 239.696 M 39.228 400.230 C 33.821 402.836, 35.670 409.896, 42.787 413.825 C 49.806 417.699, 49.760 424.204, 42.709 424.807 C 39.780 425.057, 38.813 424.644, 37.445 422.557 C 35.576 419.703, 34 419.220, 34 421.500 C 34 423.589, 37.451 426.824, 40.494 427.588 C 46.505 429.097, 52.199 423.283, 50.105 417.776 C 49.563 416.350, 47.904 414.355, 46.420 413.342 C 44.935 412.329, 42.411 410.275, 40.810 408.777 C 38.371 406.495, 38.076 405.726, 38.985 404.027 C 40.393 401.398, 44.597 401.382, 46.232 404 C 47.816 406.536, 49 406.561, 49 404.057 C 49 401.928, 45.448 398.960, 43.027 399.068 C 42.187 399.105, 40.478 399.628, 39.228 400.230 M 189.228 400.230 C 186.283 401.650, 185.295 405.654, 187.098 408.866 C 187.871 410.243, 190.528 412.551, 193.002 413.994 C 196.556 416.066, 197.563 417.252, 197.801 419.644 C 198.181 423.463, 196.134 425.233, 191.815 424.818 C 189.520 424.598, 188.196 423.808, 187.513 422.250 C 186.415 419.748, 185.477 419.420, 184.399 421.163 C 183.474 422.660, 189.386 428, 191.969 428 C 195.367 428, 198.829 425.827, 200.023 422.945 C 201.617 419.095, 199.732 415.508, 194 411.488 C 190.417 408.975, 189.500 407.737, 189.500 405.416 C 189.500 402.991, 189.955 402.447, 192.203 402.188 C 194.075 401.972, 195.301 402.510, 196.193 403.938 C 197.813 406.531, 199 406.581, 199 404.057 C 199 401.928, 195.448 398.960, 193.027 399.068 C 192.187 399.105, 190.478 399.628, 189.228 400.230 M 228.071 400.752 C 218.518 405.623, 217.468 418.938, 226.136 425.289 C 232.732 430.121, 244.040 427.649, 247.362 420.649 C 250.330 414.395, 249.953 414, 241 414 C 236.333 414, 233 414.417, 233 415 C 233 415.564, 235.833 416, 239.500 416 C 247.078 416, 247.847 417.307, 243.077 422.077 C 240.649 424.505, 239.332 425, 235.299 425 C 227.284 425, 223.081 421.111, 223.032 413.650 C 223.004 409.447, 223.453 408.347, 226.400 405.400 C 229.343 402.457, 230.460 402, 234.709 402 C 237.477 402, 240.464 402.640, 241.559 403.468 C 243.859 405.208, 245 405.379, 245 403.985 C 245 402.190, 238.609 399.008, 235 399.005 C 233.075 399.004, 229.957 399.790, 228.071 400.752 M 262.411 400.891 C 257.048 404.162, 255 407.662, 255 413.558 C 255 417.804, 255.516 419.460, 257.619 421.959 C 262.766 428.076, 269.521 429.610, 276.016 426.137 C 285.629 420.997, 285.919 406.967, 276.525 401.462 C 271.507 398.521, 266.622 398.323, 262.411 400.891 M 483.686 400.116 C 478.570 403.092, 480.086 409.511, 486.906 413.751 C 492.194 417.038, 493.527 419.803, 491.333 422.935 C 488.917 426.384, 481 424.847, 481 420.929 C 481 420.418, 480.550 420, 480 420 C 479.450 420, 479 420.830, 479 421.845 C 479 427.221, 489.442 429.642, 493.107 425.116 C 497.015 420.290, 495.309 415.592, 488.016 411.105 C 484.243 408.783, 483 407.423, 483 405.616 C 483 401.542, 488.803 400.583, 491.269 404.250 C 492.985 406.803, 494.494 406.132, 493.572 403.227 C 492.974 401.344, 489.089 398.970, 486.703 399.030 C 486.041 399.047, 484.684 399.536, 483.686 400.116 M 66.581 400.869 C 66.286 401.346, 63.556 407.282, 60.513 414.060 C 56.866 422.185, 55.319 426.719, 55.972 427.372 C 56.624 428.024, 57.694 426.596, 59.114 423.180 L 61.267 418 67.587 418 L 73.906 418 75.897 422.500 C 76.992 424.975, 78.363 427, 78.944 427 C 80.521 427, 80.447 426.770, 74.369 412.874 C 69.035 400.678, 67.839 398.834, 66.581 400.869 M 86 413.500 L 86 427 92.500 427 C 96.167 427, 99 426.564, 99 426 C 99 425.450, 96.525 425, 93.500 425 L 88 425 88 412.500 C 88 404.833, 87.613 400, 87 400 C 86.383 400, 86 405.167, 86 413.500 M 109.653 412.908 C 103.518 426.988, 103.514 427, 105.036 427 C 105.605 427, 106.939 424.975, 108 422.500 L 109.929 418 116.329 418 L 122.728 418 124.443 422.490 C 126.211 427.120, 127.483 428.646, 128.374 427.205 C 129.062 426.090, 117.793 400.759, 116.403 400.299 C 115.800 400.099, 112.763 405.773, 109.653 412.908 M 134.478 402.250 C 134.170 403.488, 134.049 409.450, 134.209 415.500 L 134.500 426.500 140.500 426.777 C 147.794 427.113, 152.501 424.919, 155.173 419.938 C 157.529 415.545, 157.479 412.620, 154.956 407.409 C 152.425 402.181, 148.204 400, 140.618 400 C 135.664 400, 134.975 400.252, 134.478 402.250 M 163.667 400.667 C 163.300 401.033, 163 407.108, 163 414.167 L 163 427 171 427 C 175.667 427, 179 426.583, 179 426 C 179 425.436, 176.167 425, 172.500 425 L 166 425 166 419.548 L 166 414.095 172.250 413.798 C 175.688 413.634, 178.500 413.050, 178.500 412.500 C 178.500 411.950, 175.688 411.366, 172.250 411.202 L 166 410.905 166 406.452 L 166 402 172.500 402 C 176.167 402, 179 401.564, 179 401 C 179 399.893, 164.750 399.583, 163.667 400.667 M 290 411.077 C 290 421.987, 290.044 422.198, 292.923 425.077 C 298.924 431.078, 307.172 427.791, 308.483 418.876 C 309.469 412.174, 308.712 400.729, 307.250 400.246 C 306.303 399.934, 306 402.374, 306 410.306 C 306 422.598, 304.696 425.381, 299.012 425.219 C 293.398 425.060, 292.541 423.277, 292.162 410.967 C 291.975 404.935, 291.413 400, 290.912 400 C 290.410 400, 290 404.985, 290 411.077 M 315.222 413.503 C 315.390 421.645, 315.897 427.009, 316.500 427.014 C 317.050 427.019, 317.636 424.515, 317.802 421.450 C 318.091 416.105, 318.209 415.890, 320.693 416.189 C 322.687 416.428, 323.993 417.817, 326.370 422.221 C 330.144 429.213, 332.180 428.263, 328.593 421.184 L 326.029 416.124 329.015 413.139 C 332.372 409.782, 332.646 408.150, 330.537 404.072 C 328.731 400.578, 327.289 400, 320.390 400 L 314.944 400 315.222 413.503 M 338 414.200 C 338 430.826, 339.765 432.289, 340.212 416.035 L 340.500 405.596 344.894 416.343 C 348.077 424.128, 349.715 427.009, 350.836 426.793 C 351.728 426.621, 354.314 422.049, 356.942 415.998 L 361.500 405.500 361.784 416.250 C 362.199 431.991, 364 429.757, 364 413.500 C 364 396.372, 362.963 395.991, 356.525 410.750 C 353.946 416.663, 351.503 421.848, 351.094 422.274 C 350.686 422.699, 348.136 417.865, 345.426 411.531 C 342.717 405.198, 339.938 400.012, 339.250 400.008 C 338.308 400.002, 338 403.503, 338 414.200 M 376.208 411.803 C 369.490 427.291, 369.591 427, 370.949 427 C 371.589 427, 373.008 424.975, 374.103 422.500 L 376.094 418 382.424 418 L 388.754 418 390.956 423.120 C 392.311 426.270, 393.516 427.884, 394.087 427.313 C 395.223 426.177, 384.058 400, 382.438 400 C 381.828 400, 379.024 405.311, 376.208 411.803 M 401 413.500 C 401 430.017, 402.810 431.915, 403.217 415.825 L 403.500 404.651 412.291 416.359 C 417.126 422.799, 421.513 427.801, 422.041 427.475 C 422.576 427.144, 423 420.941, 423 413.441 C 423 402.293, 422.750 400, 421.533 400 C 420.349 400, 420.011 402.130, 419.783 411.026 L 419.500 422.053 411.241 411.026 C 406.698 404.962, 402.535 400, 401.991 400 C 401.385 400, 401 405.252, 401 413.500 M 429 413.500 L 429 427 435.050 427 C 445.596 427, 451 422.427, 451 413.500 C 451 404.575, 445.419 400, 434.532 400 L 429 400 429 413.500 M 458 413.500 L 458 427 466 427 C 470.667 427, 474 426.583, 474 426 C 474 425.429, 471 425, 467 425 L 460 425 460 419.500 L 460 414 466.500 414 C 471.611 414, 473 413.679, 473 412.500 C 473 411.319, 471.605 411, 466.443 411 L 459.885 411 460.193 406.750 L 460.500 402.500 467.250 402.204 C 476.720 401.789, 475.705 400, 466 400 L 458 400 458 413.500 M 137 413.500 L 137 425 140.532 425 C 145.192 425, 150.346 422.772, 152.369 419.883 C 153.274 418.592, 154 415.606, 154 413.179 C 154 406.380, 148.270 402, 139.375 402 C 137.013 402, 137 402.061, 137 413.500 M 261.183 404.829 C 253.320 412.174, 258.229 425.273, 268.844 425.273 C 273.692 425.273, 276.621 423.669, 279.050 419.686 C 281.378 415.868, 281.532 411.929, 279.506 408.011 C 277.317 403.778, 274.174 402, 268.883 402 C 265.136 402, 263.613 402.560, 261.183 404.829 M 318 407.500 L 318 413 321.929 413 C 326.410 413, 329 410.980, 329 407.485 C 329 404.474, 325.517 402, 321.277 402 L 318 402 318 407.500 M 432 413.500 L 432 425 435.599 425 C 446.391 425, 452.711 414.564, 446.436 407.106 C 443.948 404.150, 438.853 402.017, 434.250 402.006 C 432.047 402, 432 402.239, 432 413.500 M 65.063 409.563 C 63.800 412.608, 62.996 415.329, 63.276 415.609 C 63.556 415.889, 65.822 415.979, 68.311 415.809 L 72.837 415.500 70.631 410.296 C 69.418 407.434, 68.185 404.852, 67.892 404.558 C 67.598 404.265, 66.325 406.517, 65.063 409.563 M 114.535 407.500 C 110.591 416.730, 110.463 416, 116.025 416 C 118.761 416, 121 415.608, 121 415.128 C 121 414.649, 119.930 411.836, 118.622 408.878 L 116.244 403.500 114.535 407.500 M 382.083 404.126 C 382.037 404.470, 380.881 407.282, 379.513 410.376 L 377.025 416 382.013 416 C 385.369 416, 386.980 415.591, 386.939 414.750 C 386.870 413.342, 382.213 403.152, 382.083 404.126" stroke="none" fill="black" fill-rule="evenodd"/>
</svg>